<svg xmlns="http://www.w3.org/2000/svg" width="512" height="512" viewBox="0 0 512 512">
  <g fill="none" fill-rule="evenodd">
    <path stroke="#000" stroke-width="13" d="M9.58680176,6.5 C9.45871038,6.5 9.33080842,6.50984442 9.20422576,6.5294463 C7.83977663,6.74073719 6.90495717,8.01812686 7.11624806,9.382576 L74.4778923,444.382576 C74.666578,445.601048 75.7154513,446.5 76.948446,446.5 L434.822788,446.5 C436.2035,446.5 437.322788,445.380712 437.322788,444 L437.322788,9 C437.322788,7.61928813 436.2035,6.5 434.822788,6.5 L9.58680176,6.5 Z" transform="translate(34 29)"/>
    <path fill="#000" stroke="#000" stroke-linecap="round" stroke-width=".25" d="M153,95.1 L153,87 L261.45,87 L261.45,251.7 C263.815566,244.74631 267.099621,238.13986 271.215,232.056 C274.68192,226.975916 278.813654,222.383083 283.5,218.4 C287.919147,214.742928 292.978422,211.937456 298.421,210.126 C306.696333,207.242 316.722667,205.8 328.5,205.8 C338.131894,205.643401 347.729268,206.990259 356.946,209.792 C376.952667,216.247333 389.691333,230.533667 395.162,252.651 C397.327623,261.925152 398.364473,271.427043 398.25,280.95 L398.25,416.4 L423.45,416.4 L423.45,424.5 L296.1,424.5 L296.1,416.4 L314.55,416.4 L314.55,270.15 C314.55,254.346 313.625,243.456333 311.775,237.481 C311.547198,236.728869 311.271638,235.992038 310.95,235.275 C308.961333,230.925 305.634333,228.377333 300.969,227.632 C299.953739,227.47368 298.927524,227.396103 297.9,227.4 C288.3,227.4 279.825,233.7 272.475,246.3 C268.10037,253.921567 265.036764,262.223692 263.412,270.86 C262.066529,277.892737 261.409425,285.03983 261.45,292.2 L261.45,416.4 L280.8,416.4 L280.8,424.5 L153,424.5 L153,416.4 L177.75,416.4 L177.75,95.1 L153,95.1 Z"/>
  </g>
</svg>
