<svg xmlns="http://www.w3.org/2000/svg" width="512" height="512" viewBox="0 0 512 512">
  <g fill="none" fill-rule="evenodd">
    <path stroke="#000" stroke-width="13" d="M9.62298415,6.5 C9.48835984,6.5 9.35395548,6.51087419 9.22108218,6.5325165 C7.85832868,6.75448083 6.93353633,8.03914846 7.15550065,9.40190197 L78.0079927,444.401902 C78.2050187,445.611546 79.2498914,446.5 80.4754762,446.5 L457.822788,446.5 C459.2035,446.5 460.322788,445.380712 460.322788,444 L460.322788,9 C460.322788,7.61928813 459.2035,6.5 457.822788,6.5 L9.62298415,6.5 Z" transform="translate(22 29)"/>
    <path fill="#000" stroke="#000" stroke-linecap="round" stroke-width=".25" d="M164,95.1 L164,87 L272.45,87 L272.45,251.7 C274.815566,244.74631 278.099621,238.13986 282.215,232.056 C285.68192,226.975916 289.813654,222.383083 294.5,218.4 C298.919147,214.742928 303.978422,211.937456 309.421,210.126 C317.696333,207.242 327.722667,205.8 339.5,205.8 C349.131894,205.643401 358.729268,206.990259 367.946,209.792 C387.952667,216.247333 400.691333,230.533667 406.162,252.651 C408.327623,261.925152 409.364473,271.427043 409.25,280.95 L409.25,416.4 L434.45,416.4 L434.45,424.5 L307.1,424.5 L307.1,416.4 L325.55,416.4 L325.55,270.15 C325.55,254.346 324.625,243.456333 322.775,237.481 C322.547198,236.728869 322.271638,235.992038 321.95,235.275 C319.961333,230.925 316.634333,228.377333 311.969,227.632 C310.953739,227.47368 309.927524,227.396103 308.9,227.4 C299.3,227.4 290.825,233.7 283.475,246.3 C279.10037,253.921567 276.036764,262.223692 274.412,270.86 C273.066529,277.892737 272.409425,285.03983 272.45,292.2 L272.45,416.4 L291.8,416.4 L291.8,424.5 L164,424.5 L164,416.4 L188.75,416.4 L188.75,95.1 L164,95.1 Z"/>
  </g>
</svg>
